[Header]
FileType HTR
DataType HTRS
FileVersion 1
NumSegments 64
NumFrames 4
DataFrameRate 30
EulerRotationOrder ZYX
CalibrationUnits mm
RotationUnits Degrees
GlobalAxisofGravity Y
BoneLengthAxis Y
ScaleFactor 1.0
[SegmentNames&Hierarchy]
Hips	GLOBAL
Spine	Hips
Spine1	Spine
Spine2	Spine1
Neck	Spine2
Head	Neck
LeftEye	Head
RightEye	Head
LeftShoulder	Spine2
LeftArm	LeftShoulder
LeftForeArm	LeftArm
LeftHand	LeftForeArm
LeftHandThumb1	LeftHand
LeftHandThumb2	LeftHandThumb1
LeftHandThumb3	LeftHandThumb2
LeftHandThumb4	LeftHandThumb3
LeftHandIndex1	LeftHand
LeftHandIndex2	LeftHandIndex1
LeftHandIndex3	LeftHandIndex2
LeftHandIndex4	LeftHandIndex3
LeftHandMiddle1	LeftHand
LeftHandMiddle2	LeftHandMiddle1
LeftHandMiddle3	LeftHandMiddle2
LeftHandMiddle4	LeftHandMiddle3
LeftHandRing1	LeftHand
LeftHandRing2	LeftHandRing1
LeftHandRing3	LeftHandRing2
LeftHandRing4	LeftHandRing3
LeftHandPinky1	LeftHand
LeftHandPinky2	LeftHandPinky1
LeftHandPinky3	LeftHandPinky2
LeftHandPinky4	LeftHandPinky3
RightShoulder	Spine2
RightArm	RightShoulder
RightForeArm	RightArm
RightHand	RightForeArm
RightHandPinky1	RightHand
RightHandPinky2	RightHandPinky1
RightHandPinky3	RightHandPinky2
RightHandPinky4	RightHandPinky3
RightHandRing1	RightHand
RightHandRing2	RightHandRing1
RightHandRing3	RightHandRing2
RightHandRing4	RightHandRing3
RightHandMiddle1	RightHand
RightHandMiddle2	RightHandMiddle1
RightHandMiddle3	RightHandMiddle2
RightHandMiddle4	RightHandMiddle3
RightHandIndex1	RightHand
RightHandIndex2	RightHandIndex1
RightHandIndex3	RightHandIndex2
RightHandIndex4	RightHandIndex3
RightHandThumb1	RightHand
RightHandThumb2	RightHandThumb1
RightHandThumb3	RightHandThumb2
RightHandThumb4	RightHandThumb3
LeftUpLeg	Hips
LeftLeg	LeftUpLeg
LeftFoot	LeftLeg
LeftToeBase	LeftFoot
RightUpLeg	Hips
RightLeg	RightUpLeg
RightFoot	RightLeg
RightToeBase	RightFoot
[BasePosition]
Hips	0	0	0	0	0	0	1
Spine	0	0	0	0	0	0	1
Spine1	0	0	0	0	0	0	1
Spine2	0	0	0	0	0	0	1
Neck	0	0	0	0	0	0	1
Head	0	0	0	0	0	0	1
LeftEye	0	0	0	0	0	0	1
RightEye	0	0	0	0	0	0	1
LeftShoulder	0	0	0	0	0	0	1
LeftArm	0	0	0	0	0	0	1
LeftForeArm	0	0	0	0	0	0	1
LeftHand	0	0	0	0	0	0	1
LeftHandThumb1	0	0	0	0	0	0	1
LeftHandThumb2	0	0	0	0	0	0	1
LeftHandThumb3	0	0	0	0	0	0	1
LeftHandThumb4	0	0	0	0	0	0	1
LeftHandIndex1	0	0	0	0	0	0	1
LeftHandIndex2	0	0	0	0	0	0	1
LeftHandIndex3	0	0	0	0	0	0	1
LeftHandIndex4	0	0	0	0	0	0	1
LeftHandMiddle1	0	0	0	0	0	0	1
LeftHandMiddle2	0	0	0	0	0	0	1
LeftHandMiddle3	0	0	0	0	0	0	1
LeftHandMiddle4	0	0	0	0	0	0	1
LeftHandRing1	0	0	0	0	0	0	1
LeftHandRing2	0	0	0	0	0	0	1
LeftHandRing3	0	0	0	0	0	0	1
LeftHandRing4	0	0	0	0	0	0	1
LeftHandPinky1	0	0	0	0	0	0	1
LeftHandPinky2	0	0	0	0	0	0	1
LeftHandPinky3	0	0	0	0	0	0	1
LeftHandPinky4	0	0	0	0	0	0	1
RightShoulder	0	0	0	0	0	0	1
RightArm	0	0	0	0	0	0	1
RightForeArm	0	0	0	0	0	0	1
RightHand	0	0	0	0	0	0	1
RightHandPinky1	0	0	0	0	0	0	1
RightHandPinky2	0	0	0	0	0	0	1
RightHandPinky3	0	0	0	0	0	0	1
RightHandPinky4	0	0	0	0	0	0	1
RightHandRing1	0	0	0	0	0	0	1
RightHandRing2	0	0	0	0	0	0	1
RightHandRing3	0	0	0	0	0	0	1
RightHandRing4	0	0	0	0	0	0	1
RightHandMiddle1	0	0	0	0	0	0	1
RightHandMiddle2	0	0	0	0	0	0	1
RightHandMiddle3	0	0	0	0	0	0	1
RightHandMiddle4	0	0	0	0	0	0	1
RightHandIndex1	0	0	0	0	0	0	1
RightHandIndex2	0	0	0	0	0	0	1
RightHandIndex3	0	0	0	0	0	0	1
RightHandIndex4	0	0	0	0	0	0	1
RightHandThumb1	0	0	0	0	0	0	1
RightHandThumb2	0	0	0	0	0	0	1
RightHandThumb3	0	0	0	0	0	0	1
RightHandThumb4	0	0	0	0	0	0	1
LeftUpLeg	0	0	0	0	0	0	1
LeftLeg	0	0	0	0	0	0	1
LeftFoot	0	0	0	0	0	0	1
LeftToeBase	0	0	0	0	0	0	1
RightUpLeg	0	0	0	0	0	0	1
RightLeg	0	0	0	0	0	0	1
RightFoot	0	0	0	0	0	0	1
RightToeBase	0	0	0	0	0	0	1
[Hips]
63	-3.956068754	1033.919434	19.93343544	-3.615289927	-5.327607632	-2.993599892	1.0
64	-3.991400242	1033.910156	20.02013969	-3.631058455	-5.347957611	-2.994140387	1.0
65	-4.007242203	1033.907349	20.09592438	-3.648558855	-5.36833334	-2.996358633	1.0
66	-3.999128819	1033.912598	20.1565094	-3.668820143	-5.388846874	-2.998996973	1.0
[Spine]
63	0	101.8159943	1.315000057	3.76360774	1.775702715	3.009268999	1.0
64	0	101.8159943	1.315000057	3.760999203	1.757982135	3.008151293	1.0
65	0	101.8159943	1.315000057	3.757365942	1.744753361	3.006329775	1.0
66	0	101.8159943	1.315000057	3.753822327	1.738696218	3.003820419	1.0
[Spine1]
63	0	100.8349991	-10.00800037	1.267670751	0.4735426903	1.631429672	1.0
64	0	100.8349991	-10.00800037	1.265940309	0.4663811326	1.631060958	1.0
65	0	100.8349991	-10.00800037	1.263855457	0.4610407948	1.630368352	1.0
66	0	100.8349991	-10.00800037	1.261820078	0.4586328864	1.629390478	1.0
[Spine2]
63	0	91	-13.73399925	1.242501616	0.4964860976	1.633261085	1.0
64	0	91	-13.73399925	1.24078095	0.4893130362	1.632920861	1.0
65	0	91	-13.73399925	1.238705039	0.4839578569	1.632249355	1.0
66	0	91	-13.73399925	1.236674666	0.4815391898	1.631276369	1.0
[Neck]
63	0	166.7169952	-25.16200066	5.735062599	-0.2548514903	0.3297447264	1.0
64	0	166.7169952	-25.16200066	5.740068913	-0.2534943223	0.3365600705	1.0
65	0	166.7169952	-25.16200066	5.74666214	-0.2518523633	0.3432444036	1.0
66	0	166.7169952	-25.16200066	5.756509304	-0.2522854805	0.3471742272	1.0
[Head]
63	0	96.17900085	16.84999847	-8.469141006	0.7903186679	-0.2054782808	1.0
64	0	96.17900085	16.84999847	-8.480772972	0.7911055684	-0.1915867478	1.0
65	0	96.17900085	16.84999847	-8.484017372	0.7968329787	-0.1809490174	1.0
66	0	96.17900085	16.84999847	-8.482398987	0.7929931879	-0.1698443443	1.0
[LeftEye]
63	30.6760006	64.09500122	92.83599854	0	0	0	1.0
64	30.6760006	64.09500122	92.83599854	0	0	0	1.0
65	30.6760006	64.09500122	92.83599854	0	0	0	1.0
66	30.6760006	64.09500122	92.83599854	0	0	0	1.0
[RightEye]
63	-30.6760006	64.09500122	92.83499908	0	0	0	1.0
64	-30.6760006	64.09500122	92.83499908	0	0	0	1.0
65	-30.6760006	64.09500122	92.83499908	0	0	0	1.0
66	-30.6760006	64.09500122	92.83499908	0	0	0	1.0
[LeftShoulder]
63	45.70400238	109.4599991	-26.28000069	4.976668358	-16.86290932	-13.56407547	1.0
64	45.70400238	109.4599991	-26.28000069	4.971933842	-16.86058044	-13.53961563	1.0
65	45.70400238	109.4599991	-26.28000069	4.967259884	-16.85834503	-13.51543617	1.0
66	45.70400238	109.4599991	-26.28000069	4.964267254	-16.85879326	-13.49923801	1.0
[LeftArm]
63	105.923996	-5.24600029	-22.32099915	19.86713791	-3.653943062	-70.93328857	1.0
64	105.923996	-5.24600029	-22.32099915	19.86791611	-3.648642063	-70.95442963	1.0
65	105.923996	-5.24600029	-22.32099915	19.87090111	-3.648054838	-70.97637177	1.0
66	105.923996	-5.24600029	-22.32099915	19.87233925	-3.652669191	-70.99182892	1.0
[LeftForeArm]
63	278.414978	-0.0009999999311	0	-2.563823045e-06	-1.47141242	-0.0002060199331	1.0
64	278.414978	-0.0009999999311	0	-9.913548638e-06	-1.467632174	-0.0002086200984	1.0
65	278.414978	-0.0009999999311	0	-7.138919955e-06	-1.462023377	-0.0002328509872	1.0
66	278.414978	-0.0009999999311	0	-2.171289907e-06	-1.453509688	-0.0002252708364	1.0
[LeftHand]
63	283.2879944	0	0	-32.90179062	-4.570168972	-4.157436848	1.0
64	283.2879944	0	0	-32.90641403	-4.56193161	-4.181266785	1.0
65	283.2879944	0	0	-32.89972687	-4.552460194	-4.200883865	1.0
66	283.2879944	0	0	-32.88396835	-4.540065289	-4.210791588	1.0
[LeftHandThumb1]
63	24.6609993	-15.75	26.8239994	-0.4889889657	2.201390743	4.818541527	1.0
64	24.6609993	-15.75	26.8239994	-0.4889889657	2.201390743	4.818541527	1.0
65	24.6609993	-15.75	26.8239994	-0.4889889657	2.201390743	4.818541527	1.0
66	24.6609993	-15.75	26.8239994	-0.4889889657	2.201390743	4.818541527	1.0
[LeftHandThumb2]
63	32.29800034	-18.64699936	18.64699936	19.88581276	19.96446037	23.26738167	1.0
64	32.29800034	-18.64699936	18.64699936	19.88581276	19.96446037	23.26738167	1.0
65	32.29800034	-18.64699936	18.64699936	19.88581276	19.96446037	23.26738167	1.0
66	32.29800034	-18.64699936	18.64699936	19.88581276	19.96446037	23.26738167	1.0
[LeftHandThumb3]
63	26.52600098	-15.31499958	15.31499958	-13.14535904	5.551738262	7.967928886	1.0
64	26.52600098	-15.31499958	15.31499958	-13.14535904	5.551738262	7.967928886	1.0
65	26.52600098	-15.31499958	15.31499958	-13.14535904	5.551738262	7.967928886	1.0
66	26.52600098	-15.31499958	15.31499958	-13.14535904	5.551738262	7.967928886	1.0
[LeftHandThumb4]
63	19.54599953	-11.28499985	11.28499985	0	0	0	1.0
64	19.54599953	-11.28499985	11.28499985	0	0	0	1.0
65	19.54599953	-11.28499985	11.28499985	0	0	0	1.0
66	19.54599953	-11.28499985	11.28499985	0	0	0	1.0
[LeftHandIndex1]
63	91.09299469	-5.170999527	22.60099792	0.1480516791	-0.9618676901	-7.594518185	1.0
64	91.09299469	-5.170999527	22.60099792	0.1480516791	-0.9618676901	-7.594518185	1.0
65	91.09299469	-5.170999527	22.60099792	0.1480516791	-0.9618676901	-7.594518185	1.0
66	91.09299469	-5.170999527	22.60099792	0.1480516791	-0.9618676901	-7.594518185	1.0
[LeftHandIndex2]
63	36.76399994	0	0	-0.2667043209	1.745171905	-17.37646866	1.0
64	36.76399994	0	0	-0.2667043209	1.745171905	-17.37646866	1.0
65	36.76399994	0	0	-0.2667043209	1.745171905	-17.37646866	1.0
66	36.76399994	0	0	-0.2667043209	1.745171905	-17.37646866	1.0
[LeftHandIndex3]
63	28.83100128	0	0	-0.05742863193	0.817338407	-8.038370132	1.0
64	28.83100128	0	0	-0.05742863193	0.817338407	-8.038370132	1.0
65	28.83100128	0	0	-0.05742863193	0.817338407	-8.038370132	1.0
66	28.83100128	0	0	-0.05742863193	0.817338407	-8.038370132	1.0
[LeftHandIndex4]
63	23.92700005	0	0	0	0	0	1.0
64	23.92700005	0	0	0	0	0	1.0
65	23.92700005	0	0	0	0	0	1.0
66	23.92700005	0	0	0	0	0	1.0
[LeftHandMiddle1]
63	95.33399963	0	0	-0.7942916155	2.538622379	-15.71737862	1.0
64	95.33399963	0	0	-0.7942916155	2.538622379	-15.71737862	1.0
65	95.33399963	0	0	-0.7942916155	2.538622379	-15.71737862	1.0
66	95.33399963	0	0	-0.7942916155	2.538622379	-15.71737862	1.0
[LeftHandMiddle2]
63	36.98199844	0	0	-0.267610997	1.748071074	-17.40625954	1.0
64	36.98199844	0	0	-0.267610997	1.748071074	-17.40625954	1.0
65	36.98199844	0	0	-0.267610997	1.748071074	-17.40625954	1.0
66	36.98199844	0	0	-0.267610997	1.748071074	-17.40625954	1.0
[LeftHandMiddle3]
63	29.50900078	0	0	-0.2992140949	1.84580946	-18.41413307	1.0
64	29.50900078	0	0	-0.2992140949	1.84580946	-18.41413307	1.0
65	29.50900078	0	0	-0.2992140949	1.84580946	-18.41413307	1.0
66	29.50900078	0	0	-0.2992140949	1.84580946	-18.41413307	1.0
[LeftHandMiddle4]
63	28.3390007	0	0	0	0	0	1.0
64	28.3390007	0	0	0	0	0	1.0
65	28.3390007	0	0	0	0	0	1.0
66	28.3390007	0	0	0	0	0	1.0
[LeftHandRing1]
63	91.04499817	-0.4390000105	-18.65100098	-1.184956431	3.436642885	-21.16632462	1.0
64	91.04499817	-0.4390000105	-18.65100098	-1.184956431	3.436642885	-21.16632462	1.0
65	91.04499817	-0.4390000105	-18.65100098	-1.184956431	3.436642885	-21.16632462	1.0
66	91.04499817	-0.4390000105	-18.65100098	-1.184956431	3.436642885	-21.16632462	1.0
[LeftHandRing2]
63	31.54000092	0	0	-0.3849357069	2.085560799	-20.91281319	1.0
64	31.54000092	0	0	-0.3849357069	2.085560799	-20.91281319	1.0
65	31.54000092	0	0	-0.3849357069	2.085560799	-20.91281319	1.0
66	31.54000092	0	0	-0.3849357069	2.085560799	-20.91281319	1.0
[LeftHandRing3]
63	29.37700081	0	0	-0.2818065584	1.792707562	-17.86576271	1.0
64	29.37700081	0	0	-0.2818065584	1.792707562	-17.86576271	1.0
65	29.37700081	0	0	-0.2818065584	1.792707562	-17.86576271	1.0
66	29.37700081	0	0	-0.2818065584	1.792707562	-17.86576271	1.0
[LeftHandRing4]
63	26.47500038	0	0	0	0	0	1.0
64	26.47500038	0	0	0	0	0	1.0
65	26.47500038	0	0	0	0	0	1.0
66	26.47500038	0	0	0	0	0	1.0
[LeftHandPinky1]
63	80.77799988	-4.887000084	-38.06099701	-1.708467126	5.355370045	-27.1653862	1.0
64	80.77799988	-4.887000084	-38.06099701	-1.708467126	5.355370045	-27.1653862	1.0
65	80.77799988	-4.887000084	-38.06099701	-1.708467126	5.355370045	-27.1653862	1.0
66	80.77799988	-4.887000084	-38.06099701	-1.708467126	5.355370045	-27.1653862	1.0
[LeftHandPinky2]
63	36	0	0	-0.2676221728	1.748113751	-17.40663528	1.0
64	36	0	0	-0.2676221728	1.748113751	-17.40663528	1.0
65	36	0	0	-0.2676221728	1.748113751	-17.40663528	1.0
66	36	0	0	-0.2676221728	1.748113751	-17.40663528	1.0
[LeftHandPinky3]
63	21.14200211	0	0	-0.2408525199	1.660349369	-16.50663185	1.0
64	21.14200211	0	0	-0.2408525199	1.660349369	-16.50663185	1.0
65	21.14200211	0	0	-0.2408525199	1.660349369	-16.50663185	1.0
66	21.14200211	0	0	-0.2408525199	1.660349369	-16.50663185	1.0
[LeftHandPinky4]
63	19.75699997	0	0	0	0	0	1.0
64	19.75699997	0	0	0	0	0	1.0
65	19.75699997	0	0	0	0	0	1.0
66	19.75699997	0	0	0	0	0	1.0
[RightShoulder]
63	-45.70000076	109.4620056	-26.28000069	5.313681602	15.08986187	15.98553085	1.0
64	-45.70000076	109.4620056	-26.28000069	5.315232754	15.07290649	16.00406456	1.0
65	-45.70000076	109.4620056	-26.28000069	5.316336632	15.06486416	16.01506615	1.0
66	-45.70000076	109.4620056	-26.28000069	5.317417145	15.06760311	16.01999474	1.0
[RightArm]
63	-105.9280014	-5.248000145	-22.32099915	30.22795677	1.778457761	62.30803299	1.0
64	-105.9280014	-5.248000145	-22.32099915	30.22997665	1.781279087	62.29889297	1.0
65	-105.9280014	-5.248000145	-22.32099915	30.22929955	1.780885816	62.2965889	1.0
66	-105.9280014	-5.248000145	-22.32099915	30.22240448	1.774022222	62.30062103	1.0
[RightForeArm]
63	-278.414978	0	0	-4.07690186e-06	6.744297981	-1.979213812e-05	1.0
64	-278.414978	0	0	-3.557917353e-06	6.750654697	-1.720957516e-05	1.0
65	-278.414978	0	0	3.680103418e-06	6.760394573	1.192934542e-05	1.0
66	-278.414978	0	0	1.421822708e-05	6.767217159	-1.794643595e-06	1.0
[RightHand]
63	-283.2879944	0	0.0009999999311	-20.43499947	1.58959341	6.049567699	1.0
64	-283.2879944	0	0.0009999999311	-20.42085266	1.576865554	6.039247513	1.0
65	-283.2879944	0	0.0009999999311	-20.40709496	1.561687946	6.035329342	1.0
66	-283.2879944	0	0.0009999999311	-20.3974514	1.551045299	6.038475037	1.0
[RightHandPinky1]
63	-80.76699829	-4.885000229	-38.06000137	-1.507175922	-4.696118355	26.50587463	1.0
64	-80.76699829	-4.885000229	-38.06000137	-1.507175922	-4.696118355	26.50587463	1.0
65	-80.76699829	-4.885000229	-38.06000137	-1.507175922	-4.696118355	26.50587463	1.0
66	-80.76699829	-4.885000229	-38.06000137	-1.507175922	-4.696118355	26.50587463	1.0
[RightHandPinky2]
63	-36	0	0.0009999999311	-0.2127676606	-1.388874292	17.43785858	1.0
64	-36	0	0.0009999999311	-0.2127676606	-1.388874292	17.43785858	1.0
65	-36	0	0.0009999999311	-0.2127676606	-1.388874292	17.43785858	1.0
66	-36	0	0.0009999999311	-0.2127676606	-1.388874292	17.43785858	1.0
[RightHandPinky3]
63	-21.14200211	0	0	-0.1919144988	-1.32059598	16.53641129	1.0
64	-21.14200211	0	0	-0.1919144988	-1.32059598	16.53641129	1.0
65	-21.14200211	0	0	-0.1919144988	-1.32059598	16.53641129	1.0
66	-21.14200211	0	0	-0.1919144988	-1.32059598	16.53641129	1.0
[RightHandPinky4]
63	-19.75699997	0	0	0	0	0	1.0
64	-19.75699997	0	0	0	0	0	1.0
65	-19.75699997	0	0	0	0	0	1.0
66	-19.75699997	0	0	0	0	0	1.0
[RightHandRing1]
63	-91.03599548	-0.4390000105	-18.65100098	-1.045235753	-2.883111477	20.47788429	1.0
64	-91.03599548	-0.4390000105	-18.65100098	-1.045235753	-2.883111477	20.47788429	1.0
65	-91.03599548	-0.4390000105	-18.65100098	-1.045235753	-2.883111477	20.47788429	1.0
66	-91.03599548	-0.4390000105	-18.65100098	-1.045235753	-2.883111477	20.47788429	1.0
[RightHandRing2]
63	-31.54000092	0	0	-0.3066971898	-1.658752441	20.94926834	1.0
64	-31.54000092	0	0	-0.3066971898	-1.658752441	20.94926834	1.0
65	-31.54000092	0	0	-0.3066971898	-1.658752441	20.94926834	1.0
66	-31.54000092	0	0	-0.3066971898	-1.658752441	20.94926834	1.0
[RightHandRing3]
63	-29.37700081	0	0	-0.2245407403	-1.425854325	17.89771652	1.0
64	-29.37700081	0	0	-0.2245407403	-1.425854325	17.89771652	1.0
65	-29.37700081	0	0	-0.2245407403	-1.425854325	17.89771652	1.0
66	-29.37700081	0	0	-0.2245407403	-1.425854325	17.89771652	1.0
[RightHandRing4]
63	-26.47500038	0	0	0	0	0	1.0
64	-26.47500038	0	0	0	0	0	1.0
65	-26.47500038	0	0	0	0	0	1.0
66	-26.47500038	0	0	0	0	0	1.0
[RightHandMiddle1]
63	-95.32500458	0	0	-0.7017197609	-2.087752104	15.0152874	1.0
64	-95.32500458	0	0	-0.7017197609	-2.087752104	15.0152874	1.0
65	-95.32500458	0	0	-0.7017197609	-2.087752104	15.0152874	1.0
66	-95.32500458	0	0	-0.7017197609	-2.087752104	15.0152874	1.0
[RightHandMiddle2]
63	-36.98199844	0	0	-0.213228479	-1.390354872	17.43750381	1.0
64	-36.98199844	0	0	-0.213228479	-1.390354872	17.43750381	1.0
65	-36.98199844	0	0	-0.213228479	-1.390354872	17.43750381	1.0
66	-36.98199844	0	0	-0.213228479	-1.390354872	17.43750381	1.0
[RightHandMiddle3]
63	-29.50900078	0	0	-0.2384106964	-1.470119596	18.44692802	1.0
64	-29.50900078	0	0	-0.2384106964	-1.470119596	18.44692802	1.0
65	-29.50900078	0	0	-0.2384106964	-1.470119596	18.44692802	1.0
66	-29.50900078	0	0	-0.2384106964	-1.470119596	18.44692802	1.0
[RightHandMiddle4]
63	-28.3390007	0	0.0009999999311	0	0	0	1.0
64	-28.3390007	0	0.0009999999311	0	0	0	1.0
65	-28.3390007	0	0.0009999999311	0	0	0	1.0
66	-28.3390007	0	0.0009999999311	0	0	0	1.0
[RightHandIndex1]
63	-91.08300018	-5.167999744	22.60099792	0.1884763837	1.25192976	6.825599194	1.0
64	-91.08300018	-5.167999744	22.60099792	0.1884763837	1.25192976	6.825599194	1.0
65	-91.08300018	-5.167999744	22.60099792	0.1884763837	1.25192976	6.825599194	1.0
66	-91.08300018	-5.167999744	22.60099792	0.1884763837	1.25192976	6.825599194	1.0
[RightHandIndex2]
63	-36.76399994	0	0	-0.2125098109	-1.388050556	17.40767097	1.0
64	-36.76399994	0	0	-0.2125098109	-1.388050556	17.40767097	1.0
65	-36.76399994	0	0	-0.2125098109	-1.388050556	17.40767097	1.0
66	-36.76399994	0	0	-0.2125098109	-1.388050556	17.40767097	1.0
[RightHandIndex3]
63	-28.83100128	0	0	-0.04576345533	-0.650116384	8.053516388	1.0
64	-28.83100128	0	0	-0.04576345533	-0.650116384	8.053516388	1.0
65	-28.83100128	0	0	-0.04576345533	-0.650116384	8.053516388	1.0
66	-28.83100128	0	0	-0.04576345533	-0.650116384	8.053516388	1.0
[RightHandIndex4]
63	-23.92700005	0	0	0	0	0	1.0
64	-23.92700005	0	0	0	0	0	1.0
65	-23.92700005	0	0	0	0	0	1.0
66	-23.92700005	0	0	0	0	0	1.0
[RightHandThumb1]
63	-24.64799881	-15.72700024	26.82600021	-1.658462524	-0.2891407609	-4.221328735	1.0
64	-24.64799881	-15.72700024	26.82600021	-1.658462524	-0.2891407609	-4.221328735	1.0
65	-24.64799881	-15.72700024	26.82600021	-1.658462524	-0.2891407609	-4.221328735	1.0
66	-24.64799881	-15.72700024	26.82600021	-1.658462524	-0.2891407609	-4.221328735	1.0
[RightHandThumb2]
63	-32.29800034	-18.64699936	18.64699936	22.25259209	-23.88967514	-24.282444	1.0
64	-32.29800034	-18.64699936	18.64699936	22.25259209	-23.88967514	-24.282444	1.0
65	-32.29800034	-18.64699936	18.64699936	22.25259209	-23.88967514	-24.282444	1.0
66	-32.29800034	-18.64699936	18.64699936	22.25259209	-23.88967514	-24.282444	1.0
[RightHandThumb3]
63	-26.52600098	-15.31399918	15.31399918	-14.47830296	-6.743862152	-11.36570263	1.0
64	-26.52600098	-15.31399918	15.31399918	-14.47830296	-6.743862152	-11.36570263	1.0
65	-26.52600098	-15.31399918	15.31399918	-14.47830296	-6.743862152	-11.36570263	1.0
66	-26.52600098	-15.31399918	15.31399918	-14.47830296	-6.743862152	-11.36570263	1.0
[RightHandThumb4]
63	-19.54599953	-11.28499985	11.28499985	0	0	0	1.0
64	-19.54599953	-11.28499985	11.28499985	0	0	0	1.0
65	-19.54599953	-11.28499985	11.28499985	0	0	0	1.0
66	-19.54599953	-11.28499985	11.28499985	0	0	0	1.0
[LeftUpLeg]
63	82.07800293	-67.51699829	-15.99599934	-7.613644123	16.42410851	7.705909252	1.0
64	82.07800293	-67.51699829	-15.99599934	-7.594955444	16.43582535	7.718788624	1.0
65	82.07800293	-67.51699829	-15.99599934	-7.574518681	16.45113373	7.733588696	1.0
66	82.07800293	-67.51699829	-15.99599934	-7.547739029	16.46681786	7.7483325	1.0
[LeftLeg]
63	0	-443.7049866	2.845999956	11.88424301	0.7736902237	4.449072838	1.0
64	0	-443.7049866	2.845999956	11.90452099	0.7762850523	4.447444916	1.0
65	0	-443.7049866	2.845999956	11.92395782	0.7749364972	4.442912102	1.0
66	0	-443.7049866	2.845999956	11.93540287	0.7741182446	4.437876225	1.0
[LeftFoot]
63	0	-444.2789917	-29.8219986	1.265448809	0.6882616282	-7.275183678	1.0
64	0	-444.2789917	-29.8219986	1.249682665	0.6877435446	-7.275019169	1.0
65	0	-444.2789917	-29.8219986	1.23532629	0.6869532466	-7.271863937	1.0
66	0	-444.2789917	-29.8219986	1.222913861	0.6864591837	-7.269545555	1.0
[LeftToeBase]
63	0	-87.28699493	107.1060028	-4.941542149	1.288781846e-06	5.78578252e-08	1.0
64	0	-87.28699493	107.1060028	-4.944065094	7.459614721e-07	-7.186541779e-07	1.0
65	0	-87.28699493	107.1060028	-4.947504044	-5.407312528e-06	1.00241482e-06	1.0
66	0	-87.28699493	107.1060028	-4.946237564	8.283503803e-07	-8.515205963e-08	1.0
[RightUpLeg]
63	-82.07800293	-67.51699829	-15.99599934	0.3032572269	-10.56192207	3.229999781	1.0
64	-82.07800293	-67.51699829	-15.99599934	0.3203921318	-10.56424999	3.227583885	1.0
65	-82.07800293	-67.51699829	-15.99599934	0.3435963392	-10.56773186	3.224505186	1.0
66	-82.07800293	-67.51699829	-15.99599934	0.3738915026	-10.56915283	3.221144915	1.0
[RightLeg]
63	0	-443.7049866	2.861999989	8.551556587	-9.202638626	-4.718946934	1.0
64	0	-443.7049866	2.861999989	8.561636925	-9.202283859	-4.721317768	1.0
65	0	-443.7049866	2.861999989	8.562526703	-9.20167923	-4.720966816	1.0
66	0	-443.7049866	2.861999989	8.553359032	-9.201321602	-4.722127914	1.0
[RightFoot]
63	0	-444.2770081	-29.83799934	-4.507889271	-1.40263021	3.275821447	1.0
64	0	-444.2770081	-29.83799934	-4.517675877	-1.38454318	3.27668643	1.0
65	0	-444.2770081	-29.83799934	-4.522182465	-1.362375021	3.276890278	1.0
66	0	-444.2770081	-29.83799934	-4.52042675	-1.334098816	3.278916359	1.0
[RightToeBase]
63	0	-87.28699493	107.1060028	-7.222263336	-6.288119181e-08	3.471800767e-07	1.0
64	0	-87.28699493	107.1060028	-7.218533516	-9.444257557e-06	5.866066886e-07	1.0
65	0	-87.28699493	107.1060028	-7.210790157	-3.821480732e-06	-5.153475513e-07	1.0
66	0	-87.28699493	107.1060028	-7.208884239	-1.068479469e-05	-4.658113539e-08	1.0
[EndOfFile]
